<svg width="81" height="29" viewBox="0 0 81 29" fill="none" xmlns="http://www.w3.org/2000/svg">
<path d="M9.48192 14V5.27273H12.9251C13.5842 5.27273 14.1467 5.39062 14.6126 5.62642C15.0814 5.85937 15.4379 6.19034 15.6822 6.61932C15.9294 7.04545 16.0529 7.54687 16.0529 8.12358C16.0529 8.70312 15.9279 9.2017 15.6779 9.61932C15.4279 10.0341 15.0657 10.3523 14.5913 10.5739C14.1197 10.7955 13.5487 10.9062 12.8782 10.9062H10.5728V9.4233H12.5799C12.9322 9.4233 13.2248 9.375 13.4578 9.27841C13.6907 9.18182 13.864 9.03693 13.9777 8.84375C14.0941 8.65057 14.1524 8.41051 14.1524 8.12358C14.1524 7.83381 14.0941 7.58949 13.9777 7.39062C13.864 7.19176 13.6893 7.04119 13.4535 6.93892C13.2206 6.83381 12.9265 6.78125 12.5714 6.78125H11.3271V14H9.48192ZM14.195 10.0284L16.364 14H14.3271L12.2049 10.0284H14.195ZM20.2003 14.1278C19.527 14.1278 18.9475 13.9915 18.4617 13.7188C17.9787 13.4432 17.6066 13.054 17.3452 12.5511C17.0838 12.0455 16.9532 11.4474 16.9532 10.7571C16.9532 10.0838 17.0838 9.4929 17.3452 8.98438C17.6066 8.47585 17.9745 8.07955 18.4489 7.79545C18.9262 7.51136 19.4858 7.36932 20.1279 7.36932C20.5597 7.36932 20.9617 7.43892 21.3338 7.57812C21.7088 7.71449 22.0355 7.92045 22.314 8.19602C22.5952 8.47159 22.814 8.81818 22.9702 9.2358C23.1265 9.65057 23.2046 10.1364 23.2046 10.6932V11.1918H17.6776V10.0668H21.4958C21.4958 9.8054 21.439 9.57386 21.3253 9.37216C21.2117 9.17045 21.054 9.01278 20.8523 8.89915C20.6534 8.78267 20.4219 8.72443 20.1577 8.72443C19.8821 8.72443 19.6378 8.78835 19.4247 8.91619C19.2145 9.04119 19.0497 9.21023 18.9304 9.4233C18.8111 9.63352 18.75 9.8679 18.7472 10.1264V11.196C18.7472 11.5199 18.8069 11.7997 18.9262 12.0355C19.0483 12.2713 19.2202 12.4531 19.4418 12.581C19.6634 12.7088 19.9262 12.7727 20.2301 12.7727C20.4319 12.7727 20.6165 12.7443 20.7841 12.6875C20.9517 12.6307 21.0952 12.5455 21.2145 12.4318C21.3338 12.3182 21.4247 12.179 21.4872 12.0142L23.1662 12.125C23.081 12.5284 22.9063 12.8807 22.6421 13.1818C22.3807 13.4801 22.0426 13.7131 21.6279 13.8807C21.2159 14.0455 20.7401 14.1278 20.2003 14.1278ZM27.3466 14.1278C26.6762 14.1278 26.0995 13.9858 25.6165 13.7017C25.1364 13.4148 24.7671 13.017 24.5086 12.5085C24.2529 12 24.125 11.4148 24.125 10.7528C24.125 10.0824 24.2543 9.49432 24.5128 8.98864C24.7742 8.48011 25.1449 8.08381 25.625 7.79972C26.1051 7.51278 26.6762 7.36932 27.3381 7.36932C27.9091 7.36932 28.4091 7.47301 28.8381 7.6804C29.2671 7.88778 29.6066 8.17898 29.8566 8.55398C30.1066 8.92898 30.2444 9.36932 30.2699 9.875H28.5569C28.5086 9.5483 28.3807 9.28551 28.1733 9.08665C27.9688 8.88494 27.7003 8.78409 27.3679 8.78409C27.0867 8.78409 26.8409 8.8608 26.6307 9.0142C26.4233 9.16477 26.2614 9.38494 26.1449 9.67472C26.0284 9.96449 25.9702 10.3153 25.9702 10.7273C25.9702 11.1449 26.027 11.5 26.1407 11.7926C26.2571 12.0852 26.4205 12.3082 26.6307 12.4616C26.8409 12.6151 27.0867 12.6918 27.3679 12.6918C27.5753 12.6918 27.7614 12.6491 27.9262 12.5639C28.0938 12.4787 28.2316 12.3551 28.3395 12.1932C28.4503 12.0284 28.5228 11.831 28.5569 11.6009H30.2699C30.2415 12.1009 30.1051 12.5412 29.8608 12.9219C29.6194 13.2997 29.2855 13.5952 28.8594 13.8082C28.4333 14.0213 27.929 14.1278 27.3466 14.1278ZM34.3896 14.1278C33.7277 14.1278 33.1552 13.9872 32.6723 13.706C32.1922 13.4219 31.8214 13.027 31.56 12.5213C31.2987 12.0128 31.168 11.4233 31.168 10.7528C31.168 10.0767 31.2987 9.4858 31.56 8.98011C31.8214 8.47159 32.1922 8.0767 32.6723 7.79545C33.1552 7.51136 33.7277 7.36932 34.3896 7.36932C35.0515 7.36932 35.6225 7.51136 36.1027 7.79545C36.5856 8.0767 36.9578 8.47159 37.2191 8.98011C37.4805 9.4858 37.6112 10.0767 37.6112 10.7528C37.6112 11.4233 37.4805 12.0128 37.2191 12.5213C36.9578 13.027 36.5856 13.4219 36.1027 13.706C35.6225 13.9872 35.0515 14.1278 34.3896 14.1278ZM34.3981 12.7216C34.6993 12.7216 34.9507 12.6364 35.1524 12.4659C35.3541 12.2926 35.5061 12.0568 35.6083 11.7585C35.7135 11.4602 35.766 11.1207 35.766 10.7401C35.766 10.3594 35.7135 10.0199 35.6083 9.72159C35.5061 9.4233 35.3541 9.1875 35.1524 9.0142C34.9507 8.84091 34.6993 8.75426 34.3981 8.75426C34.0941 8.75426 33.8385 8.84091 33.6311 9.0142C33.4265 9.1875 33.2717 9.4233 33.1666 9.72159C33.0643 10.0199 33.0132 10.3594 33.0132 10.7401C33.0132 11.1207 33.0643 11.4602 33.1666 11.7585C33.2717 12.0568 33.4265 12.2926 33.6311 12.4659C33.8385 12.6364 34.0941 12.7216 34.3981 12.7216ZM38.7916 14V7.45455H40.5515V8.59659H40.6197C40.739 8.19034 40.9393 7.88352 41.2206 7.67614C41.5018 7.46591 41.8257 7.3608 42.1922 7.3608C42.2831 7.3608 42.3811 7.36648 42.4862 7.37784C42.5913 7.3892 42.6836 7.40483 42.7632 7.42472V9.03551C42.6779 9.00994 42.56 8.98722 42.4095 8.96733C42.2589 8.94744 42.1211 8.9375 41.9961 8.9375C41.7291 8.9375 41.4904 8.99574 41.2802 9.11222C41.0728 9.22585 40.9081 9.38494 40.7859 9.58949C40.6666 9.79403 40.6069 10.0298 40.6069 10.2969V14H38.7916ZM45.809 14.1065C45.3118 14.1065 44.8615 13.9787 44.4581 13.723C44.0576 13.4645 43.7394 13.0852 43.5036 12.5852C43.2706 12.0824 43.1542 11.4659 43.1542 10.7358C43.1542 9.9858 43.2749 9.36222 43.5164 8.86506C43.7578 8.36506 44.0789 7.99148 44.4794 7.74432C44.8828 7.49432 45.3246 7.36932 45.8047 7.36932C46.1712 7.36932 46.4766 7.43182 46.7209 7.55682C46.9681 7.67898 47.1669 7.83239 47.3175 8.01705C47.4709 8.19886 47.5874 8.37784 47.6669 8.55398H47.7223V5.27273H49.5334V14H47.7436V12.9517H47.6669C47.5817 13.1335 47.461 13.3139 47.3047 13.4929C47.1513 13.669 46.951 13.8153 46.7039 13.9318C46.4596 14.0483 46.1613 14.1065 45.809 14.1065ZM46.3843 12.6619C46.6769 12.6619 46.924 12.5824 47.1257 12.4233C47.3303 12.2614 47.4865 12.0355 47.5945 11.7457C47.7053 11.456 47.7607 11.1165 47.7607 10.7273C47.7607 10.3381 47.7067 10 47.5988 9.71307C47.4908 9.42614 47.3346 9.20455 47.13 9.0483C46.9255 8.89205 46.6769 8.81392 46.3843 8.81392C46.086 8.81392 45.8346 8.89489 45.63 9.05682C45.4255 9.21875 45.2706 9.44318 45.1655 9.73011C45.0604 10.017 45.0078 10.3494 45.0078 10.7273C45.0078 11.108 45.0604 11.4446 45.1655 11.7372C45.2735 12.027 45.4283 12.2543 45.63 12.419C45.8346 12.581 46.086 12.6619 46.3843 12.6619ZM52.8924 14.1236C52.4748 14.1236 52.1027 14.0511 51.776 13.9062C51.4493 13.7585 51.1907 13.5412 51.0004 13.2543C50.8129 12.9645 50.7191 12.6037 50.7191 12.1719C50.7191 11.8082 50.7859 11.5028 50.9194 11.2557C51.0529 11.0085 51.2348 10.8097 51.4649 10.6591C51.695 10.5085 51.9564 10.3949 52.249 10.3182C52.5444 10.2415 52.8541 10.1875 53.1779 10.1562C53.5586 10.1165 53.8654 10.0795 54.0984 10.0455C54.3314 10.0085 54.5004 9.95455 54.6055 9.88352C54.7106 9.8125 54.7632 9.70739 54.7632 9.56818V9.54261C54.7632 9.27273 54.6779 9.06392 54.5075 8.91619C54.3399 8.76847 54.1012 8.6946 53.7916 8.6946C53.4649 8.6946 53.2049 8.76705 53.0118 8.91193C52.8186 9.05398 52.6907 9.23295 52.6282 9.44886L50.9493 9.3125C51.0345 8.91477 51.2021 8.57102 51.4521 8.28125C51.7021 7.98864 52.0245 7.7642 52.4194 7.60795C52.8172 7.44886 53.2774 7.36932 53.8001 7.36932C54.1637 7.36932 54.5118 7.41193 54.8441 7.49716C55.1794 7.58239 55.4762 7.71449 55.7348 7.89347C55.9961 8.07244 56.2021 8.30256 56.3527 8.58381C56.5032 8.86222 56.5785 9.19602 56.5785 9.58523V14H54.8569V13.0923H54.8058C54.7007 13.2969 54.56 13.4773 54.3839 13.6335C54.2078 13.7869 53.9961 13.9077 53.749 13.9957C53.5018 14.081 53.2163 14.1236 52.8924 14.1236ZM53.4123 12.8707C53.6794 12.8707 53.9152 12.8182 54.1197 12.7131C54.3243 12.6051 54.4848 12.4602 54.6012 12.2784C54.7177 12.0966 54.776 11.8906 54.776 11.6605V10.9659C54.7191 11.0028 54.641 11.0369 54.5416 11.0682C54.445 11.0966 54.3356 11.1236 54.2135 11.1491C54.0913 11.1719 53.9691 11.1932 53.847 11.2131C53.7248 11.2301 53.614 11.2457 53.5146 11.2599C53.3015 11.2912 53.1154 11.3409 52.9564 11.4091C52.7973 11.4773 52.6737 11.5696 52.5856 11.6861C52.4975 11.7997 52.4535 11.9418 52.4535 12.1122C52.4535 12.3594 52.543 12.5483 52.722 12.679C52.9038 12.8068 53.1339 12.8707 53.4123 12.8707ZM61.4684 7.45455V8.81818H57.5267V7.45455H61.4684ZM58.4216 5.88636H60.2369V11.9886C60.2369 12.1562 60.2625 12.2869 60.3136 12.3807C60.3647 12.4716 60.4358 12.5355 60.5267 12.5724C60.6204 12.6094 60.7284 12.6278 60.8505 12.6278C60.9358 12.6278 61.021 12.6207 61.1062 12.6065C61.1914 12.5895 61.2568 12.5767 61.3022 12.5682L61.5877 13.919C61.4968 13.9474 61.369 13.9801 61.2042 14.017C61.0395 14.0568 60.8392 14.081 60.6034 14.0895C60.1659 14.1065 59.7823 14.0483 59.4528 13.9148C59.1261 13.7812 58.8718 13.5739 58.69 13.2926C58.5082 13.0114 58.4187 12.6562 58.4216 12.2273V5.88636ZM63.7717 16.4545C63.5416 16.4545 63.3257 16.4361 63.124 16.3991C62.9251 16.3651 62.7603 16.321 62.6297 16.267L63.0387 14.9119C63.2518 14.9773 63.4436 15.0128 63.614 15.0185C63.7873 15.0241 63.9365 14.9844 64.0615 14.8991C64.1893 14.8139 64.293 14.669 64.3725 14.4645L64.4791 14.1875L62.1311 7.45455H64.0402L65.3953 12.2614H65.4635L66.8314 7.45455H68.7532L66.2092 14.7074C66.087 15.0597 65.9208 15.3665 65.7106 15.6278C65.5032 15.892 65.2404 16.0952 64.9223 16.2372C64.6041 16.3821 64.2206 16.4545 63.7717 16.4545Z" fill="white"/>
<g clip-path="url(#clip0_9_62)">
<path d="M73.8987 23.7487C74.2852 23.7487 74.6197 23.5474 74.6981 23.1048L75.7813 17.0367L76.4946 18.4772C76.641 18.7687 76.9089 18.9749 77.1969 18.9749H81.1418C81.5921 18.9749 81.9578 18.547 81.9578 18.0216C81.9578 17.4938 81.5921 17.0651 81.1418 17.0651H77.6632L76.1123 13.9981C75.9409 13.6595 75.612 13.4752 75.2761 13.5418C74.9437 13.6067 74.6793 13.9039 74.6113 14.2896L73.9556 17.9973L72.4602 8.28891C72.3901 7.83418 72.0522 7.51831 71.6566 7.51831H71.6532C71.257 7.51831 70.919 7.83987 70.8524 8.29621L69.2564 19.1942L68.7429 17.6717C68.6208 17.3063 68.3196 17.0635 67.9845 17.0635H60.7449C60.2945 17.0635 59.9288 17.4906 59.9288 18.0192C59.9288 18.5454 60.2938 18.9741 60.7449 18.9741H67.4307L68.8116 23.0577C68.9448 23.4556 69.2849 23.6968 69.6547 23.6562C70.0169 23.6107 70.3118 23.2891 70.3743 22.8669L71.6761 13.9632L73.0958 23.078C73.1652 23.5287 73.4976 23.7471 73.8883 23.7471C73.8917 23.7487 73.8952 23.7487 73.8987 23.7487Z" fill="white"/>
</g>
<line x1="17.2" y1="18.0615" x2="61.3507" y2="18.0615" stroke="white" stroke-width="1.9"/>
<defs>
<clipPath id="clip0_9_62">
<rect width="22.029" height="25.778" fill="white" transform="matrix(-1 0 0 1 81 3.22198)"/>
</clipPath>
</defs>
</svg>
